<?xml version="1.0" encoding="UTF-8"?>
<svg version="1.1" xmlns="http://www.w3.org/2000/svg" width="600" height="600">
<path d="M0 0 C198 0 396 0 600 0 C600 198 600 396 600 600 C402 600 204 600 0 600 C0 402 0 204 0 0 Z " fill="#FEFEFE" transform="translate(0,0)"/>
<path d="M0 0 C5.19461175 0.17387822 7.54901443 1.93307314 11.1875 5.5 C12.15143191 6.42159205 13.11763589 7.3408127 14.0859375 8.2578125 C14.81441895 8.95245605 14.81441895 8.95245605 15.55761719 9.66113281 C17.72457048 11.67257016 20.01037287 13.52107461 22.3125 15.375 C26.60855452 18.84371163 30.81915177 22.39449267 35 26 C41.50802904 31.60323503 48.12101413 37.06248014 54.80419922 42.45605469 C62.67668387 48.8102603 70.47891012 55.22135101 78.13647461 61.83349609 C82.1097503 65.2573427 86.1512773 68.57429447 90.265625 71.828125 C93.74045255 74.58813088 97.18284757 77.38691635 100.625 80.1875 C101.30296631 80.73865479 101.98093262 81.28980957 102.67944336 81.85766602 C106.21142175 84.72954668 109.74128034 87.60401023 113.26953125 90.48046875 C122.40719605 97.9283636 122.40719605 97.9283636 131.6796875 105.20703125 C135.32991916 108.02766481 138.94691137 110.89055009 142.5690918 113.74707031 C145.44882911 116.01326991 148.33660424 118.26524107 151.26171875 120.47265625 C159.26473168 126.52659592 166.86216821 132.95385587 174.38916016 139.58886719 C176.40518519 141.35495156 178.45507124 143.08004584 180.5 144.8125 C184.38711432 148.23249328 187.67850347 152.03870701 191 156 C191.7734375 156.87398437 192.546875 157.74796875 193.34375 158.6484375 C213.33095859 181.65840295 223.48240789 209.90329442 223.25 240.375 C223.24395752 241.64778809 223.23791504 242.92057617 223.23168945 244.23193359 C222.79820542 285.2841848 203.73522902 315.62275258 178 346 C177.49017578 346.60360352 176.98035156 347.20720703 176.45507812 347.82910156 C174.5834243 350.04501044 172.71049838 352.25979643 170.83178711 354.46972656 C167.26548511 358.66723829 163.7799161 362.92629533 160.3046875 367.19921875 C157.77966925 370.26775787 155.20515231 373.29039812 152.625 376.3125 C148.84207889 380.74851156 145.19457983 385.26593781 141.625 389.875 C137.15003811 395.64745039 132.4417691 401.17758426 127.62988281 406.67089844 C123.97418441 410.85102459 120.45926017 415.11292274 117.0234375 419.4765625 C114.57198482 422.53377955 112.040938 425.5171035 109.5 428.5 C105.67473263 432.99489983 101.93782211 437.54338211 98.26953125 442.16796875 C95.33745805 445.826752 92.35748724 449.44477431 89.375 453.0625 C88.77743896 453.78904785 88.17987793 454.5155957 87.56420898 455.26416016 C84.50814028 458.97594176 81.43750485 462.67378576 78.3359375 466.34765625 C63.03024787 484.54425952 51.45704525 500.00620375 52.75292969 524.76831055 C53.11029112 527.99621651 54.04543263 530.90060224 55 534 C54.625 536.9375 54.625 536.9375 54 539 C51.76953125 539.6953125 51.76953125 539.6953125 49 540 C46.88671875 538.8046875 46.88671875 538.8046875 44.6875 536.875 C43.82382812 536.13894531 42.96015625 535.40289063 42.0703125 534.64453125 C41.58852539 534.2263916 41.10673828 533.80825195 40.61035156 533.37744141 C37.48455499 530.70373851 34.26285101 528.14599734 31.0625 525.5625 C26.40773841 521.78169365 21.76243018 517.98953495 17.125 514.1875 C13.87019426 511.52097026 10.60182175 508.8738205 7.3125 506.25 C-2.14065102 498.70248419 -11.56252722 491.11979209 -20.75 483.25 C-24.70512501 479.86489606 -28.74315728 476.64869405 -32.9375 473.5625 C-38.19302803 469.69220386 -43.1235269 465.53797914 -48.03930664 461.25268555 C-51.22837577 458.48206108 -54.44742043 455.85181986 -57.875 453.375 C-58.90625 452.59125 -59.9375 451.8075 -61 451 C-61 450.34 -61 449.68 -61 449 C-61.54140625 448.75636719 -62.0828125 448.51273437 -62.640625 448.26171875 C-70.07068627 444.28835817 -76.77081571 438.34279931 -83.01953125 432.73828125 C-86.05147422 430.07710843 -89.22091973 427.59502268 -92.37890625 425.0859375 C-100.10464396 418.93758588 -107.67107361 412.61576808 -115.14160156 406.16113281 C-117.62620421 404.0173575 -120.11003467 401.91388591 -122.6953125 399.890625 C-124.90047195 398.08164674 -126.66959877 396.24257694 -128.5 394.0625 C-130.42700398 391.80811254 -132.3381273 389.6618727 -134.4375 387.5625 C-140.46537272 381.53462728 -145.68489647 375.25959276 -150.4375 368.1875 C-151.09335083 367.21804443 -151.09335083 367.21804443 -151.76245117 366.22900391 C-153.77293883 363.17567275 -155.25217117 360.57252694 -156 357 C-156.66 357 -157.32 357 -158 357 C-158.25394531 356.28714844 -158.50789063 355.57429688 -158.76953125 354.83984375 C-159.28580078 353.40318359 -159.28580078 353.40318359 -159.8125 351.9375 C-160.14894531 350.99777344 -160.48539063 350.05804688 -160.83203125 349.08984375 C-161.6530959 346.91772957 -162.55140297 344.77402352 -163.50390625 342.65625 C-165.13927028 338.65964235 -166.1797581 334.763155 -167.125 330.5625 C-167.29386719 329.85029297 -167.46273437 329.13808594 -167.63671875 328.40429688 C-174.88733135 296.97546038 -170.0837901 262.36061167 -153.3828125 234.73828125 C-149.54019646 228.61579764 -145.34764303 222.77105866 -141 217 C-140.59136719 216.4524707 -140.18273437 215.90494141 -139.76171875 215.34082031 C-134.31091496 208.05145176 -128.57794899 201.04259722 -122.66015625 194.12890625 C-120.18220852 191.22948417 -117.77340982 188.27818589 -115.375 185.3125 C-112.48750173 181.76103154 -109.52031979 178.3206971 -106.4375 174.9375 C-102.88634202 171.03183743 -99.54650884 167.01810031 -96.27734375 162.875 C-93.4854954 159.35047104 -90.65080796 155.86214784 -87.8125 152.375 C-87.26013672 151.69590576 -86.70777344 151.01681152 -86.13867188 150.31713867 C-85.00027155 148.91755473 -83.86176112 147.51806035 -82.72314453 146.11865234 C-81.01100811 144.01353476 -79.30018031 141.90736134 -77.58984375 139.80078125 C-71.40870694 132.18776941 -65.21539872 124.58508844 -59 117 C-56.74682628 114.24655868 -54.49408577 111.49276581 -52.2421875 108.73828125 C-50.77107387 106.94167732 -49.29720472 105.14732543 -47.8203125 103.35546875 C-43.20384691 97.74506661 -38.69296618 92.0644682 -34.22924805 86.33276367 C-31.06671636 82.29538396 -27.78692299 78.382797 -24.4375 74.5 C-11.79425181 59.70609619 0.46077946 43.49632564 0.25 23.25 C0.24758301 22.36908691 0.24516602 21.48817383 0.24267578 20.58056641 C0.17410016 14.85291945 -0.33437997 9.46915494 -1.7578125 3.8984375 C-1.87769531 2.95871094 -1.87769531 2.95871094 -2 2 C-1.34 1.34 -0.68 0.68 0 0 Z " fill="#EA210F" transform="translate(273,30)"/>
<path d="M0 0 C1.1294957 -0.00761353 2.25899139 -0.01522705 3.42271423 -0.02307129 C5.80709636 -0.0338417 8.19152555 -0.0367379 10.57592773 -0.03222656 C14.17969961 -0.03125943 17.78130333 -0.07281292 21.38476562 -0.1171875 C38.753733 -0.20813671 53.87427096 0.9364036 67.15234375 13.46875 C78.04378192 25.63561082 80.75640686 36.03139424 80.61889648 52.015625 C80.61944611 53.67260388 80.62182631 55.329583 80.62588501 56.98655701 C80.63104011 60.53927922 80.62405067 64.0916914 80.60763359 67.64437866 C80.58237212 73.2790416 80.58883935 78.91340353 80.60011292 84.5480957 C80.62324705 98.54762134 80.60499447 112.54705882 80.57861328 126.54656982 C80.55858833 137.4235361 80.55023866 148.30025816 80.57554966 159.17722511 C80.58726481 164.76056592 80.57594145 170.34320746 80.54629695 175.92647457 C80.53288902 179.42477227 80.5405614 182.92280912 80.55357742 186.42109871 C80.55540883 188.02289261 80.54894535 189.62472521 80.53277397 191.22643852 C80.40683008 204.44049686 81.95180604 218.07376322 89.15234375 229.46875 C89.15234375 230.12875 89.15234375 230.78875 89.15234375 231.46875 C76.25750637 235.35629182 62.37249681 238.78113772 49.52734375 233.03125 C41.91239858 228.58136435 37.50902591 222.73069715 34.79381371 214.36116219 C33.42232528 208.17706923 33.76505593 201.78785597 33.81176758 195.48413086 C33.81261496 193.8769126 33.81213654 192.26969318 33.81044006 190.66247559 C33.80958303 186.32213478 33.82716126 181.98204518 33.84816194 177.6417625 C33.86697762 173.09741554 33.86868302 168.55306215 33.87223816 164.00868225 C33.88154429 155.41347147 33.90613862 146.81837583 33.93628663 138.22321564 C33.9698753 128.43360848 33.98632786 118.64399568 34.00137293 108.8543452 C34.03268952 88.72573503 34.08768362 68.59728259 34.15234375 48.46875 C12.04234375 48.46875 -10.06765625 48.46875 -32.84765625 48.46875 C-32.84765625 15.46875 -32.84765625 15.46875 -23.47265625 6.09375 C-16.70918316 0.16270437 -8.5121135 0.00160087 0 0 Z " fill="#FEFDFD" transform="translate(242.84765625,202.53125)"/>
<path d="M0 0 C27.39 0 54.78 0 83 0 C83.0825 6.826875 83.165 13.65375 83.25 20.6875 C83.28641602 22.83467529 83.32283203 24.98185059 83.36035156 27.1940918 C83.37203869 28.90412395 83.38223046 30.61416726 83.390625 32.32421875 C83.41108887 33.20549438 83.43155273 34.08677002 83.45263672 34.99475098 C83.45502275 39.20072937 83.37475006 41.39977372 81.10058594 45.04223633 C78.11771976 47.82229257 76.5097278 48.12905157 72.5378418 48.17700195 C71.61315598 48.18983719 70.68847015 48.20267242 69.73576355 48.21589661 C68.23267387 48.22697701 68.23267387 48.22697701 66.69921875 48.23828125 C65.6706929 48.246353 64.64216705 48.25442474 63.58247375 48.26274109 C61.40273732 48.27658767 59.22297914 48.28730725 57.04321289 48.29516602 C53.71133273 48.31237689 50.38044514 48.35625835 47.04882812 48.40039062 C44.93229897 48.41051756 42.81576137 48.41903366 40.69921875 48.42578125 C39.20523811 48.45204338 39.20523811 48.45204338 37.68107605 48.47883606 C33.31269946 48.46515508 30.73302399 48.44084001 26.92895508 46.15307617 C22.77228052 41.51344664 21.73625482 36.01534622 20.1875 30.125 C17.21968991 19.67698457 12.09151221 13.6065279 3.96289062 6.71606445 C2.59045883 5.53465682 1.28880141 4.2721179 0 3 C0 2.01 0 1.02 0 0 Z " fill="#FEFAFB" transform="translate(307,203)"/>
</svg>
